<svg id="visual" viewBox="0 0 900 600" width="900" height="600" xmlns="http://www.w3.org/2000/svg" xmlns:xlink="http://www.w3.org/1999/xlink" version="1.1"><path d="M0 327L21.5 328.5C43 330 86 333 128.8 322.7C171.7 312.3 214.3 288.7 257.2 280.7C300 272.7 343 280.3 385.8 281.2C428.7 282 471.3 276 514.2 272.2C557 268.3 600 266.7 642.8 264.3C685.7 262 728.3 259 771.2 260C814 261 857 266 878.5 268.5L900 271L900 601L878.5 601C857 601 814 601 771.2 601C728.3 601 685.7 601 642.8 601C600 601 557 601 514.2 601C471.3 601 428.7 601 385.8 601C343 601 300 601 257.2 601C214.3 601 171.7 601 128.8 601C86 601 43 601 21.5 601L0 601Z" fill="#0066FF" stroke-linecap="round" stroke-linejoin="miter"></path></svg>